<svg xmlns="http://www.w3.org/2000/svg" viewBox="0 0 370 109" role="img" aria-label="Stretto Soccorso"><title>Stretto Soccorso</title><g transform="translate(2,2) scale(0.89)"><path d="M8 29C21 8 48 4 81 8L66 26C42 24 28 27 24 36c-3 8 9 10 28 8L41 62C13 65-8 51 8 29z" fill="#0b5056"/><path d="M91 78C78 99 51 103 18 99l15-18c24 2 38-1 42-10 3-8-9-10-28-8l11-18c28-3 49 11 33 33z" fill="#0b5056"/></g><g transform="translate(107,65) scale(1.3518799474051242,1)"><path d="M1.547-9.765L10.635-11.150Q11.215-8.508 12.987-7.138Q14.760-5.769 17.950-5.769Q21.463-5.769 23.235-7.058Q24.428-7.960 24.428-9.475Q24.428-10.506 23.783-11.183Q23.106-11.827 20.754-12.375Q9.797-14.792 6.864-16.790Q2.804-19.562 2.804-24.492Q2.804-28.939 6.316-31.969Q9.829-34.998 17.209-34.998Q24.234-34.998 27.650-32.710Q31.066-30.422 32.355-25.942L23.815-24.363Q23.268-26.361 21.737-27.425Q20.206-28.488 17.370-28.488Q13.793-28.488 12.246-27.489Q11.215-26.780 11.215-25.652Q11.215-24.686 12.117-24.009Q13.342-23.106 20.577-21.463Q27.812-19.819 30.680-17.435Q33.516-15.018 33.516-10.699Q33.516-5.994 29.584-2.610Q25.652 0.773 17.950 0.773Q10.957 0.773 6.880-2.062Q2.804-4.898 1.547-9.765M47.950-34.225L54.138-34.225L54.138-27.006L47.950-27.006L47.950-13.213Q47.950-9.023 48.127-8.331Q48.305-7.638 48.933-7.187Q49.562-6.735 50.464-6.735Q51.721-6.735 54.105-7.605L54.879-0.580Q51.721 0.773 47.725 0.773Q45.275 0.773 43.310-0.048Q41.344-0.870 40.425-2.175Q39.507-3.480 39.152-5.704Q38.862-7.283 38.862-12.085L38.862-27.006L34.705-27.006L34.705-34.225L38.862-34.225L38.862-41.024L47.950-46.310L47.950-34.225M66.091-10.570L66.091 0L57.035 0L57.035-34.225L65.446-34.225L65.446-29.358Q67.605-32.807 69.330-33.902Q71.054-34.998 73.245-34.998Q76.339-34.998 79.207-33.290L76.403-25.395Q74.115-26.877 72.149-26.877Q70.248-26.877 68.927-25.830Q67.605-24.782 66.848-22.043Q66.091-19.304 66.091-10.570M99.926-10.893L108.949-9.378Q107.209-4.415 103.455-1.821Q99.700 0.773 94.061 0.773Q85.134 0.773 80.848-5.060Q77.464-9.732 77.464-16.854Q77.464-25.362 81.911-30.180Q86.358-34.998 93.158-34.998Q100.796-34.998 105.211-29.955Q109.626-24.911 109.433-14.502L86.745-14.502Q86.842-10.474 88.937-8.234Q91.031-5.994 94.157-5.994Q96.284-5.994 97.734-7.154Q99.185-8.314 99.926-10.893M86.906-20.045L100.441-20.045Q100.345-23.977 98.411-26.023Q96.478-28.069 93.706-28.069Q90.741-28.069 88.808-25.910Q86.874-23.751 86.906-20.045M123.319-34.225L129.507-34.225L129.507-27.006L123.319-27.006L123.319-13.213Q123.319-9.023 123.497-8.331Q123.674-7.638 124.302-7.187Q124.931-6.735 125.833-6.735Q127.090-6.735 129.475-7.605L130.248-0.580Q127.090 0.773 123.094 0.773Q120.645 0.773 118.679-0.048Q116.713-0.870 115.794-2.175Q114.876-3.480 114.521-5.704Q114.231-7.283 114.231-12.085L114.231-27.006L110.074-27.006L110.074-34.225L114.231-34.225L114.231-41.024L123.319-46.310L123.319-34.225M142.298-34.225L148.485-34.225L148.485-27.006L142.298-27.006L142.298-13.213Q142.298-9.023 142.475-8.331Q142.652-7.638 143.281-7.187Q143.909-6.735 144.812-6.735Q146.068-6.735 148.453-7.605L149.227-0.580Q146.068 0.773 142.072 0.773Q139.623 0.773 137.657-0.048Q135.691-0.870 134.773-2.175Q133.854-3.480 133.500-5.704Q133.210-7.283 133.210-12.085L133.210-27.006L129.053-27.006L129.053-34.225L133.210-34.225L133.210-41.024L142.298-46.310L142.298-34.225M149.675-17.596Q149.675-22.107 151.898-26.329Q154.122-30.551 158.199-32.774Q162.275-34.998 167.303-34.998Q175.069-34.998 180.032-29.955Q184.995-24.911 184.995-17.209Q184.995-9.442 179.984-4.334Q174.973 0.773 167.367 0.773Q162.662 0.773 158.392-1.354Q154.122-3.480 151.898-7.589Q149.675-11.698 149.675-17.596M158.956-17.112Q158.956-12.021 161.373-9.313Q163.790-6.606 167.335-6.606Q170.880-6.606 173.281-9.313Q175.682-12.021 175.682-17.177Q175.682-22.204 173.281-24.911Q170.880-27.618 167.335-27.618Q163.790-27.618 161.373-24.911Q158.956-22.204 158.956-17.112" fill="#0b5056"/></g><g transform="translate(111,91) scale(2.2270829190693973,1)"><path d="M0.506-3.261L2.475-3.452Q2.652-2.461 3.196-1.996Q3.739-1.531 4.662-1.531Q5.640-1.531 6.135-1.945Q6.631-2.358 6.631-2.912Q6.631-3.268 6.422-3.517Q6.214-3.767 5.694-3.951Q5.339-4.074 4.074-4.389Q2.447-4.792 1.791-5.380Q0.868-6.207 0.868-7.396Q0.868-8.162 1.302-8.829Q1.736-9.495 2.553-9.844Q3.370-10.192 4.525-10.192Q6.412-10.192 7.366-9.365Q8.319-8.538 8.367-7.157L6.344-7.068Q6.214-7.841 5.787-8.179Q5.359-8.518 4.505-8.518Q3.623-8.518 3.124-8.155Q2.803-7.923 2.803-7.533Q2.803-7.178 3.104-6.925Q3.486-6.604 4.963-6.255Q6.439-5.906 7.147-5.534Q7.854-5.161 8.254-4.515Q8.654-3.869 8.654-2.919Q8.654-2.058 8.176-1.306Q7.697-0.554 6.822-0.188Q5.947 0.178 4.642 0.178Q2.741 0.178 1.723-0.701Q0.704-1.579 0.506-3.261M14.146-4.949Q14.146-6.480 14.604-7.520Q14.946-8.285 15.537-8.894Q16.129-9.502 16.833-9.796Q17.769-10.192 18.993-10.192Q21.208-10.192 22.537-8.818Q23.867-7.444 23.867-4.997Q23.867-2.570 22.548-1.200Q21.228 0.171 19.020 0.171Q16.785 0.171 15.466-1.193Q14.146-2.557 14.146-4.949M16.231-5.018Q16.231-3.315 17.017-2.437Q17.804-1.559 19.013-1.559Q20.223-1.559 20.999-2.430Q21.775-3.302 21.775-5.045Q21.775-6.768 21.020-7.615Q20.264-8.463 19.013-8.463Q17.762-8.463 16.997-7.605Q16.231-6.747 16.231-5.018M36.058-3.685L38.020-3.062Q37.569-1.422 36.520-0.625Q35.470 0.171 33.857 0.171Q31.861 0.171 30.576-1.193Q29.291-2.557 29.291-4.922Q29.291-7.424 30.583-8.808Q31.875-10.192 33.980-10.192Q35.819-10.192 36.967-9.105Q37.651-8.463 37.993-7.260L35.990-6.781Q35.812-7.561 35.248-8.012Q34.684-8.463 33.878-8.463Q32.763-8.463 32.069-7.663Q31.376-6.863 31.376-5.072Q31.376-3.172 32.059-2.365Q32.743-1.559 33.837-1.559Q34.643-1.559 35.224-2.071Q35.805-2.584 36.058-3.685M50.369-3.685L52.330-3.062Q51.879-1.422 50.830-0.625Q49.781 0.171 48.167 0.171Q46.171 0.171 44.886-1.193Q43.601-2.557 43.601-4.922Q43.601-7.424 44.893-8.808Q46.185-10.192 48.290-10.192Q50.129-10.192 51.278-9.105Q51.961-8.463 52.303-7.260L50.300-6.781Q50.122-7.561 49.558-8.012Q48.995-8.463 48.188-8.463Q47.074-8.463 46.380-7.663Q45.686-6.863 45.686-5.072Q45.686-3.172 46.370-2.365Q47.053-1.559 48.147-1.559Q48.954-1.559 49.535-2.071Q50.116-2.584 50.369-3.685M57.857-4.949Q57.857-6.480 58.315-7.520Q58.656-8.285 59.248-8.894Q59.839-9.502 60.543-9.796Q61.480-10.192 62.703-10.192Q64.918-10.192 66.248-8.818Q67.577-7.444 67.577-4.997Q67.577-2.570 66.258-1.200Q64.939 0.171 62.731 0.171Q60.495 0.171 59.176-1.193Q57.857-2.557 57.857-4.949M59.942-5.018Q59.942-3.315 60.728-2.437Q61.514-1.559 62.724-1.559Q63.934-1.559 64.710-2.430Q65.486-3.302 65.486-5.045Q65.486-6.768 64.730-7.615Q63.975-8.463 62.724-8.463Q61.473-8.463 60.707-7.605Q59.942-6.747 59.942-5.018M75.387 0L73.363 0L73.363-10.021L77.622-10.021Q79.229-10.021 79.957-9.751Q80.685-9.481 81.122-8.791Q81.560-8.101 81.560-7.212Q81.560-6.084 80.896-5.349Q80.233-4.614 78.914-4.423Q79.570-4.040 79.998-3.582Q80.425-3.124 81.149-1.955L82.373 0L79.953 0L78.490-2.181Q77.711-3.350 77.424-3.654Q77.137-3.958 76.815-4.071Q76.494-4.184 75.797-4.184L75.387-4.184L75.387 0M75.387-8.326L75.387-5.783L76.884-5.783Q78.340-5.783 78.702-5.906Q79.064-6.029 79.270-6.330Q79.475-6.631 79.475-7.082Q79.475-7.588 79.205-7.899Q78.935-8.210 78.442-8.292Q78.196-8.326 76.966-8.326L75.387-8.326M87.154-3.261L89.123-3.452Q89.301-2.461 89.844-1.996Q90.388-1.531 91.310-1.531Q92.288-1.531 92.783-1.945Q93.279-2.358 93.279-2.912Q93.279-3.268 93.071-3.517Q92.862-3.767 92.343-3.951Q91.987-4.074 90.722-4.389Q89.096-4.792 88.439-5.380Q87.516-6.207 87.516-7.396Q87.516-8.162 87.950-8.829Q88.385-9.495 89.201-9.844Q90.018-10.192 91.174-10.192Q93.060-10.192 94.014-9.365Q94.968-8.538 95.015-7.157L92.992-7.068Q92.862-7.841 92.435-8.179Q92.008-8.518 91.153-8.518Q90.271-8.518 89.772-8.155Q89.451-7.923 89.451-7.533Q89.451-7.178 89.752-6.925Q90.135-6.604 91.611-6.255Q93.088-5.906 93.795-5.534Q94.503-5.161 94.903-4.515Q95.303-3.869 95.303-2.919Q95.303-2.058 94.824-1.306Q94.346-0.554 93.471-0.188Q92.596 0.178 91.290 0.178Q89.389 0.178 88.371-0.701Q87.352-1.579 87.154-3.261M100.795-4.949Q100.795-6.480 101.253-7.520Q101.594-8.285 102.186-8.894Q102.777-9.502 103.481-9.796Q104.418-10.192 105.641-10.192Q107.856-10.192 109.186-8.818Q110.515-7.444 110.515-4.997Q110.515-2.570 109.196-1.200Q107.877 0.171 105.669 0.171Q103.433 0.171 102.114-1.193Q100.795-2.557 100.795-4.949M102.879-5.018Q102.879-3.315 103.666-2.437Q104.452-1.559 105.662-1.559Q106.872-1.559 107.648-2.430Q108.423-3.302 108.423-5.045Q108.423-6.768 107.668-7.615Q106.913-8.463 105.662-8.463Q104.411-8.463 103.645-7.605Q102.879-6.747 102.879-5.018" fill="#0b5056"/></g><g transform="translate(113,106) scale(1.7040230139411374,1)"><path d="M1.560 0L0.708 0L0.708-6.442L3.564-6.442Q4.425-6.442 4.874-6.269Q5.322-6.095 5.590-5.656Q5.858-5.216 5.858-4.685Q5.858-3.999 5.414-3.529Q4.970-3.059 4.043-2.931Q4.381-2.769 4.557-2.610Q4.931-2.268 5.265-1.753L6.385 0L5.313 0L4.460-1.340Q4.087-1.920 3.845-2.228Q3.604-2.536 3.412-2.659Q3.221-2.782 3.023-2.830Q2.878-2.861 2.549-2.861L1.560-2.861L1.560 0M1.560-5.730L1.560-3.599L3.393-3.599Q3.977-3.599 4.307-3.720Q4.636-3.841 4.808-4.107Q4.979-4.373 4.979-4.685Q4.979-5.142 4.647-5.436Q4.315-5.730 3.599-5.730L1.560-5.730M14.019 0L9.211 0L9.211-6.442L13.870-6.442L13.870-5.682L10.064-5.682L10.064-3.709L13.628-3.709L13.628-2.953L10.064-2.953L10.064-0.760L14.019-0.760L14.019 0M22.105-2.527L20.211-2.527L20.211-3.283L22.940-3.287L22.940-0.896Q22.312-0.396 21.644-0.143Q20.976 0.110 20.273 0.110Q19.324 0.110 18.548-0.297Q17.772-0.703 17.377-1.472Q16.981-2.241 16.981-3.190Q16.981-4.131 17.375-4.946Q17.768-5.761 18.506-6.157Q19.245-6.552 20.207-6.552Q20.906-6.552 21.470-6.326Q22.035-6.100 22.356-5.695Q22.677-5.291 22.844-4.641L22.075-4.430Q21.930-4.922 21.714-5.203Q21.499-5.484 21.099-5.654Q20.699-5.823 20.211-5.823Q19.627-5.823 19.201-5.645Q18.774-5.467 18.513-5.177Q18.251-4.887 18.106-4.540Q17.860-3.942 17.860-3.243Q17.860-2.382 18.157-1.802Q18.454-1.222 19.021-0.940Q19.587-0.659 20.225-0.659Q20.778-0.659 21.306-0.872Q21.833-1.085 22.105-1.327L22.105-2.527M31.106-2.527L29.212-2.527L29.212-3.283L31.941-3.287L31.941-0.896Q31.313-0.396 30.645-0.143Q29.977 0.110 29.273 0.110Q28.324 0.110 27.549-0.297Q26.773-0.703 26.377-1.472Q25.982-2.241 25.982-3.190Q25.982-4.131 26.375-4.946Q26.769-5.761 27.507-6.157Q28.245-6.552 29.208-6.552Q29.906-6.552 30.471-6.326Q31.036-6.100 31.356-5.695Q31.677-5.291 31.844-4.641L31.075-4.430Q30.930-4.922 30.715-5.203Q30.500-5.484 30.100-5.654Q29.700-5.823 29.212-5.823Q28.627-5.823 28.201-5.645Q27.775-5.467 27.513-5.177Q27.252-4.887 27.107-4.540Q26.861-3.942 26.861-3.243Q26.861-2.382 27.157-1.802Q27.454-1.222 28.021-0.940Q28.588-0.659 29.225-0.659Q29.779-0.659 30.306-0.872Q30.833-1.085 31.106-1.327L31.106-2.527M36.195 0L35.343 0L35.343-6.442L36.195-6.442L36.195 0M39.439-3.138Q39.439-4.742 40.300-5.649Q41.162-6.557 42.524-6.557Q43.416-6.557 44.132-6.130Q44.849-5.704 45.224-4.942Q45.600-4.179 45.600-3.212Q45.600-2.232 45.205-1.459Q44.809-0.686 44.084-0.288Q43.359 0.110 42.520 0.110Q41.610 0.110 40.894-0.330Q40.177-0.769 39.808-1.529Q39.439-2.290 39.439-3.138M40.318-3.125Q40.318-1.960 40.944-1.290Q41.570-0.620 42.515-0.620Q43.478-0.620 44.099-1.296Q44.721-1.973 44.721-3.217Q44.721-4.003 44.455-4.590Q44.189-5.177 43.677-5.500Q43.166-5.823 42.528-5.823Q41.623-5.823 40.970-5.201Q40.318-4.579 40.318-3.125M57.796-2.259L58.648-2.043Q58.380-0.993 57.684-0.442Q56.987 0.110 55.981 0.110Q54.939 0.110 54.287-0.314Q53.634-0.738 53.294-1.542Q52.953-2.347 52.953-3.270Q52.953-4.276 53.338-5.025Q53.722-5.774 54.432-6.163Q55.142-6.552 55.994-6.552Q56.961-6.552 57.620-6.060Q58.279-5.568 58.539-4.676L57.699-4.478Q57.475-5.181 57.049-5.502Q56.623-5.823 55.977-5.823Q55.234-5.823 54.735-5.467Q54.236-5.111 54.034-4.511Q53.832-3.911 53.832-3.274Q53.832-2.452 54.072-1.839Q54.311-1.226 54.816-0.923Q55.322-0.620 55.911-0.620Q56.627-0.620 57.124-1.033Q57.620-1.446 57.796-2.259M61.896 0L60.991 0L63.465-6.442L64.384-6.442L67.021 0L66.049 0L65.298-1.951L62.604-1.951L61.896 0M63.558-4.535L62.850-2.646L65.034-2.646L64.362-4.430Q64.054-5.243 63.905-5.766Q63.782-5.146 63.558-4.535M73.692 0L69.667 0L69.667-6.442L70.519-6.442L70.519-0.760L73.692-0.760L73.692 0M76.905 0L76 0L78.474-6.442L79.392-6.442L82.029 0L81.058 0L80.306-1.951L77.612-1.951L76.905 0M78.566-4.535L77.858-2.646L80.042-2.646L79.370-4.430Q79.063-5.243 78.913-5.766Q78.790-5.146 78.566-4.535M87.131 0L84.675 0L84.675-6.442L87.092-6.442Q87.830-6.442 88.276-6.247Q88.722-6.051 88.975-5.645Q89.228-5.238 89.228-4.794Q89.228-4.381 89.003-4.017Q88.779-3.652 88.327-3.428Q88.911-3.256 89.225-2.843Q89.540-2.430 89.540-1.868Q89.540-1.415 89.348-1.026Q89.157-0.637 88.876-0.426Q88.595-0.215 88.171-0.108Q87.747 0 87.131 0M85.527-5.682L85.527-3.735L86.920-3.735Q87.487-3.735 87.733-3.810Q88.059-3.907 88.223-4.131Q88.388-4.355 88.388-4.693Q88.388-5.014 88.234-5.258Q88.081-5.502 87.795-5.592Q87.509-5.682 86.815-5.682L85.527-5.682M85.527-2.975L85.527-0.760L87.131-0.760Q87.544-0.760 87.711-0.791Q88.006-0.844 88.204-0.967Q88.401-1.090 88.529-1.325Q88.656-1.560 88.656-1.868Q88.656-2.228 88.472-2.494Q88.287-2.760 87.960-2.867Q87.632-2.975 87.017-2.975L85.527-2.975M93.579 0L92.726 0L92.726-6.442L95.583-6.442Q96.444-6.442 96.892-6.269Q97.340-6.095 97.608-5.656Q97.876-5.216 97.876-4.685Q97.876-3.999 97.433-3.529Q96.989-3.059 96.062-2.931Q96.400-2.769 96.576-2.610Q96.949-2.268 97.283-1.753L98.404 0L97.332 0L96.479-1.340Q96.105-1.920 95.864-2.228Q95.622-2.536 95.431-2.659Q95.240-2.782 95.042-2.830Q94.897-2.861 94.567-2.861L93.579-2.861L93.579 0M93.579-5.730L93.579-3.599L95.411-3.599Q95.996-3.599 96.325-3.720Q96.655-3.841 96.826-4.107Q96.998-4.373 96.998-4.685Q96.998-5.142 96.666-5.436Q96.334-5.730 95.618-5.730L93.579-5.730M102.210 0L101.357 0L101.357-6.442L102.210-6.442L102.210 0M105.911 0L105.005 0L107.479-6.442L108.398-6.442L111.035 0L110.063 0L109.312-1.951L106.618-1.951L105.911 0M107.572-4.535L106.864-2.646L109.048-2.646L108.376-4.430Q108.068-5.243 107.919-5.766Q107.796-5.146 107.572-4.535" fill="#0b5056"/></g></svg>